<svg width="51" height="51" viewBox="0 0 51 51" fill="none"
     xmlns="http://www.w3.org/2000/svg">
    <g clip-path="url(#clip0_183_361)">
        <path d="M37.5494 13.2468C36.2227 11.1554 34.8896 9.06993 33.5503 6.98449C32.8587 5.90292 32.1482 4.82733 31.4439 3.75174L31.1673 3.36333C29.8846 1.51093 27.3506 0.285953 24.8921 1.46313C22.6913 2.51481 21.7419 5.02452 22.8674 7.104C23.295 7.89276 24.0055 8.56202 24.6594 9.21932C26.6715 11.251 28.7465 13.2229 30.746 15.2725C33.7516 18.3559 32.626 23.2378 28.5578 24.8751L28.4258 24.9289C28.4258 23.3633 28.4258 21.744 28.4258 20.1724C28.4258 18.6009 28.4258 17.0532 28.4258 15.4099C24.8166 17.1787 21.723 19.4792 19.057 22.3116C14.9008 26.7036 12.4485 32.2011 11.694 36.2106C13.9765 35.1052 16.2212 34.0176 18.4722 32.9301C20.7233 31.8426 22.9617 30.7729 25.3008 29.6436V47.9943L28.4195 51V28.0959C28.4195 28.0959 28.4887 28.066 28.7276 27.9465C29.6456 27.4804 30.614 27.0741 31.4628 26.5064C36.1158 23.4111 36.7383 17.1309 32.821 13.2289C30.5008 10.9283 28.1743 8.63372 25.8604 6.32718C25.1876 5.65793 25.2002 4.80343 25.8604 4.21186C26.5017 3.63223 27.4198 3.68004 28.0988 4.33137C28.4195 4.64209 30.5951 6.82315 31.3685 7.59399C33.324 9.542 35.2858 11.484 37.2476 13.4261C37.3482 13.5217 37.4614 13.6053 37.5745 13.689C37.6123 13.6651 37.6563 13.6412 37.694 13.6233C37.65 13.4918 37.6311 13.3484 37.5557 13.2349L37.5494 13.2468ZM25.2945 26.2375C25.2945 26.363 25.1373 26.5303 25.0115 26.5961C23.7728 27.2235 22.5216 27.827 21.2703 28.4425C19.7864 29.1655 18.3025 29.8886 16.7179 30.6594C18.7803 26.614 21.6036 23.3095 25.2505 20.6086L25.3071 20.5668C25.3071 22.4072 25.3133 24.3971 25.3008 26.2375H25.2945Z"
              fill="#CF163D"/>
    </g>
    <defs>
        <clipPath id="clip0_183_361">
            <rect width="51" height="51" fill="white"/>
        </clipPath>
    </defs>
</svg>